<svg xmlns="http://www.w3.org/2000/svg" version="1.1" xmlns:xlink="http://www.w3.org/1999/xlink" xmlns:svgjs="http://svgjs.dev/svgjs" width="1500" height="1500" viewBox="0 0 1500 1500"><rect width="1500" height="1500" fill="#ffffff"></rect><g transform="matrix(0.6666666666666666,0,0,0.6666666666666666,249.39393939393938,535.429028627299)"><svg viewBox="0 0 396 170" data-background-color="#ffffff" preserveAspectRatio="xMidYMid meet" height="643" width="1500" xmlns="http://www.w3.org/2000/svg" xmlns:xlink="http://www.w3.org/1999/xlink"><g id="tight-bounds" transform="matrix(1,0,0,1,0.2400000000000091,0.09424214625003913)"><svg viewBox="0 0 395.52 169.81151570749992" height="169.81151570749992" width="395.52"><g><svg viewBox="0 0 397.4975999999999 170.6605732860374" height="169.81151570749992" width="395.52"><g><rect width="397.4975999999999" height="4.8818691359276105" x="0" y="87.59309035169618" fill="#ca3433" opacity="1" stroke-width="0" stroke="transparent" fill-opacity="1" class="rect-qz-0" data-fill-palette-color="primary" rx="1%" id="qz-0" data-palette-color="#ca3433"></rect></g><g><rect width="397.4975999999999" height="4.8818691359276105" x="0" y="98.86484055559187" fill="#ca3433" opacity="1" stroke-width="0" stroke="transparent" fill-opacity="1" class="rect-qz-1" data-fill-palette-color="primary" rx="1%" id="qz-1" data-palette-color="#ca3433"></rect></g><g transform="matrix(1,0,0,1,0.9887999999999693,116.52647182745564)"><svg viewBox="0 0 395.52 54.13410145858178" height="54.13410145858178" width="395.52"><g id="textblocktransform"><svg viewBox="0 0 395.52 54.13410145858178" height="54.13410145858178" width="395.52" id="textblock"><g><svg viewBox="0 0 395.52 54.13410145858178" height="54.13410145858178" width="395.52"><g transform="matrix(1,0,0,1,0,0)"><svg width="395.52" viewBox="0.37 -35.79 266.11 36.42" height="54.13410145858178" data-palette-color="#ca3433"><path d="M24.54-33.35L24.54-33.35 23.66-23.05Q22.95-23.24 22.27-23.32 21.58-23.39 20.87-23.39L20.87-23.39Q19.14-23.39 17.57-22.95 15.99-22.51 14.78-21.61 13.57-20.7 12.85-19.32 12.13-17.94 12.13-16.06L12.13-16.06Q12.13-14.7 12.54-13.68 12.94-12.67 13.68-12 14.43-11.33 15.49-10.99 16.55-10.64 17.85-10.64L17.85-10.64Q18.75-10.64 19.7-10.83 20.65-11.01 21.61-11.33 22.56-11.65 23.44-12.06 24.32-12.48 25.07-12.94L25.07-12.94 24.68-1.46Q23.73-0.98 22.63-0.6 21.53-0.22 20.37 0.06 19.21 0.34 18.05 0.49 16.89 0.63 15.84 0.63L15.84 0.63Q12.38 0.63 9.53-0.66 6.69-1.95 4.65-4.19 2.61-6.42 1.49-9.38 0.37-12.33 0.37-15.67L0.37-15.67Q0.37-19.68 1.5-23.14 2.64-26.61 4.85-29.16 7.06-31.71 10.31-33.17 13.57-34.62 17.8-34.62L17.8-34.62Q19.48-34.62 21.22-34.35 22.95-34.08 24.54-33.35ZM48.14-34.96L57.66-2.1 45.55-0.54 44.09-6.05 38.52-6.05 37.3-0.54 24.85-1.76 34.57-34.28 48.14-34.96ZM39.55-13.53L43.21-13.53 41.35-22.02 39.55-13.53ZM86.79-23.54L86.79-23.54Q86.79-21.63 86.46-20.08 86.13-18.53 85.42-17.24 84.71-15.94 83.59-14.84 82.47-13.75 80.88-12.74L80.88-12.74 86.69-2.39 75.7-0.24 71.94-10.64 68.92-10.55 68.48-0.39 57.98-0.39Q58.1-5.96 58.21-11.47 58.32-16.99 58.47-22.56L58.47-22.56Q58.52-25.37 58.56-28.13 58.61-30.88 58.76-33.69L58.76-33.69Q60.47-34.33 62.13-34.74 63.79-35.16 65.46-35.39 67.13-35.62 68.85-35.71 70.58-35.79 72.38-35.79L72.38-35.79Q75.17-35.79 77.77-35.02 80.37-34.25 82.37-32.71 84.37-31.18 85.58-28.88 86.79-26.59 86.79-23.54ZM75.85-22.75L75.85-22.75Q75.85-23.78 75.57-24.63 75.29-25.49 74.74-26.11 74.19-26.73 73.37-27.09 72.55-27.44 71.45-27.44L71.45-27.44Q70.97-27.44 70.5-27.38 70.04-27.32 69.6-27.2L69.6-27.2 69.21-18.12 69.79-18.12Q70.84-18.12 71.93-18.38 73.02-18.65 73.88-19.21 74.75-19.78 75.3-20.65 75.85-21.53 75.85-22.75ZM126.85-23.54L126.85-23.54Q126.85-21.63 126.52-20.08 126.19-18.53 125.48-17.24 124.77-15.94 123.65-14.84 122.52-13.75 120.94-12.74L120.94-12.74 126.75-2.39 115.76-0.24 112-10.64 108.97-10.55 108.53-0.39 98.04-0.39Q98.16-5.96 98.27-11.47 98.38-16.99 98.53-22.56L98.53-22.56Q98.57-25.37 98.62-28.13 98.67-30.88 98.82-33.69L98.82-33.69Q100.53-34.33 102.19-34.74 103.85-35.16 105.52-35.39 107.19-35.62 108.91-35.71 110.63-35.79 112.44-35.79L112.44-35.79Q115.22-35.79 117.82-35.02 120.42-34.25 122.43-32.71 124.43-31.18 125.64-28.88 126.85-26.59 126.85-23.54ZM115.91-22.75L115.91-22.75Q115.91-23.78 115.63-24.63 115.35-25.49 114.8-26.11 114.25-26.73 113.43-27.09 112.61-27.44 111.51-27.44L111.51-27.44Q111.03-27.44 110.56-27.38 110.1-27.32 109.66-27.2L109.66-27.2 109.27-18.12 109.85-18.12Q110.9-18.12 111.99-18.38 113.08-18.65 113.94-19.21 114.81-19.78 115.36-20.65 115.91-21.53 115.91-22.75ZM155.53-19.73L155.53-19.73Q155.53-17.6 155.24-15.48L155.24-15.48Q151.06-15.21 146.94-14.61 142.81-14.01 138.68-13.43L138.68-13.43Q139.32-11.67 140.67-10.62 142.03-9.57 143.91-9.57L143.91-9.57Q144.88-9.57 146.04-9.94 147.2-10.3 148.35-10.85 149.5-11.4 150.55-12.04 151.6-12.67 152.36-13.18L152.36-13.18 151.18-2.1Q150.23-1.37 149.12-0.85 148.01-0.34 146.81-0.02 145.62 0.29 144.4 0.44 143.18 0.59 142 0.59L142 0.59Q139.59 0.59 137.59-0.07 135.58-0.73 133.96-1.92 132.34-3.1 131.12-4.71 129.89-6.32 129.09-8.23 128.28-10.13 127.87-12.26 127.45-14.38 127.45-16.55L127.45-16.55Q127.45-18.82 127.87-21.09 128.28-23.36 129.13-25.46 129.97-27.56 131.25-29.36 132.53-31.15 134.24-32.5 135.95-33.84 138.11-34.59 140.27-35.35 142.88-35.35L142.88-35.35Q145.06-35.35 146.85-34.75 148.64-34.16 150.05-33.09 151.45-32.03 152.49-30.57 153.53-29.1 154.2-27.36 154.87-25.61 155.2-23.67 155.53-21.73 155.53-19.73ZM145.76-20.46L145.76-21Q145.76-21.68 145.62-22.4 145.47-23.12 145.14-23.71 144.81-24.29 144.27-24.67 143.74-25.05 142.93-25.05L142.93-25.05Q141.96-25.05 141.21-24.52 140.47-24 139.93-23.21 139.39-22.41 139.05-21.48 138.71-20.56 138.54-19.78L138.54-19.78 145.76-20.46ZM187.41-12.35L187.41-12.35Q187.41-9.59 187.35-6.9 187.29-4.2 187.17-1.46L187.17-1.46 173.11-1.71Q173.84-6.03 174.37-10.34 174.91-14.65 174.91-19.04L174.91-19.04Q174.91-19.36 174.89-20.07 174.86-20.78 174.79-21.67 174.72-22.56 174.58-23.5 174.45-24.44 174.22-25.22 173.98-26 173.65-26.5 173.32-27 172.86-27L172.86-27Q172.03-27 171.46-26.51 170.88-26.03 170.51-25.26 170.13-24.49 169.91-23.54 169.69-22.58 169.58-21.63 169.47-20.68 169.43-19.84 169.39-18.99 169.39-18.46L169.39-18.46Q169.27-14.14 169.2-9.88 169.13-5.62 169-1.27L169-1.27 156.55-0.73Q157.04-9.35 157.49-17.87 157.94-26.39 158.21-35.01L158.21-35.01 169.74-35.6 169.64-31.69Q170.32-32.52 171.12-33.25 171.91-33.98 172.81-34.51 173.72-35.03 174.73-35.34 175.74-35.64 176.86-35.64L176.86-35.64Q178.94-35.64 180.5-34.96 182.07-34.28 183.19-33.11 184.31-31.93 185.07-30.33 185.82-28.74 186.29-26.93 186.75-25.12 187-23.16 187.24-21.19 187.33-19.29 187.41-17.38 187.41-15.6 187.41-13.82 187.41-12.35ZM188.95-34.38L215.56-34.42 215.31-24.07 208.04-23.78 207.16-1.12 196.86-0.59 195.93-23.24 188.65-22.85 188.95-34.38ZM235.04-34.96L244.56-2.1 232.45-0.54 230.99-6.05 225.42-6.05 224.2-0.54 211.75-1.76 221.46-34.28 235.04-34.96ZM226.44-13.53L230.11-13.53 228.25-22.02 226.44-13.53ZM256.57-12.94L266.48-12.94 265.46-2.1 244.9-0.49 245.68-35.35 258.38-35.35 256.57-12.94Z" opacity="1" transform="matrix(1,0,0,1,0,0)" fill="#ca3433" class="wordmark-text-0" data-fill-palette-color="primary" id="text-0"></path></svg></g></svg></g></svg></g></svg></g><g transform="matrix(1,0,0,1,110.92117419201233,0)"><svg viewBox="0 0 175.65525161597526 74.81332821576002" height="74.81332821576002" width="175.65525161597526"><g><svg xmlns="http://www.w3.org/2000/svg" xmlns:xlink="http://www.w3.org/1999/xlink" version="1.1" x="0" y="0" viewBox="0 0 100 42.591" enable-background="new 0 0 100 42.591" xml:space="preserve" width="175.65525161597526" height="74.81332821576002" class="icon-icon-0" data-fill-palette-color="accent" id="icon-0"><path d="M19.525 24.44c-5 0-9.069 4.075-9.069 9.089 0 4.986 4.069 9.062 9.069 9.062 5.013 0 9.088-4.076 9.088-9.062C28.613 28.515 24.538 24.44 19.525 24.44zM19.525 38.412c-2.676 0-4.876-2.201-4.876-4.883 0-2.695 2.201-4.896 4.876-4.896 2.695 0 4.889 2.201 4.889 4.896C24.414 36.21 22.22 38.412 19.525 38.412z" fill="#ca3433" data-fill-palette-color="accent"></path><path d="M80.632 24.44c-5.007 0-9.076 4.075-9.076 9.089 0 4.986 4.069 9.062 9.076 9.062 5.006 0 9.068-4.076 9.068-9.062C89.7 28.515 85.638 24.44 80.632 24.44zM80.632 38.412c-2.695 0-4.89-2.201-4.89-4.883 0-2.695 2.194-4.896 4.89-4.896s4.889 2.201 4.889 4.896C85.521 36.21 83.327 38.412 80.632 38.412z" fill="#ca3433" data-fill-palette-color="accent"></path><path d="M98.249 26.732c0-8.815-5.495-9.87-5.495-9.87-8.079-1.133-21.999-1.719-21.999-1.719C69.479 12.93 63.581 0 60.149 0c-1.158 0-25.781 0-30.143 0-4.368 0-11.523 12.604-13.092 15.456 0 0-5.482 0.938-8.066 1.537-1.432 0.325-5.41 0.403-5.41 11.51H0v5.026h8.366c0-6.172 5.007-11.172 11.159-11.172 6.178 0 11.172 5 11.172 11.172H69.46c0-6.172 4.986-11.172 11.172-11.172 6.165 0 11.165 5 11.165 11.172H100v-6.797H98.249zM44.746 14.284H27.344c2.35-7.331 6.712-12.565 8.555-12.565 2.311 0 8.848 0 8.848 0V14.284zM47.988 14.284V1.719c0 0 8.978 0 11.289 0 2.324 0 7.422 10.638 8.854 13.359L47.988 14.284z" fill="#ca3433" data-fill-palette-color="accent"></path></svg></g></svg></g><g></g></svg></g><defs></defs></svg><rect width="395.52" height="169.81151570749992" fill="none" stroke="none" visibility="hidden"></rect></g></svg></g></svg>