<svg xmlns="http://www.w3.org/2000/svg" version="1.1" xmlns:xlink="http://www.w3.org/1999/xlink" xmlns:svgjs="http://svgjs.dev/svgjs" viewBox="0 0 2000 780"><g transform="matrix(1,0,0,1,0.3398876404492057,-0.7315009414183464)"><svg viewBox="0 0 356 139" data-background-color="#ffffff" preserveAspectRatio="xMidYMid meet" height="780" width="2000" xmlns="http://www.w3.org/2000/svg" xmlns:xlink="http://www.w3.org/1999/xlink"><g id="tight-bounds" transform="matrix(1,0,0,1,-0.06049999999996203,0.13035721904762454)"><svg viewBox="0 0 356.12052 138.73928556190475" height="138.73928556190475" width="356.12052"><g><svg viewBox="0 0 356.12052 138.73928556190475" height="138.73928556190475" width="356.12052"><g><svg viewBox="0 0 356.12052 138.73928556190475" height="138.73928556190475" width="356.12052"><g><path d="M0 138.739v-138.739h356.121v138.739z" fill="#c8c8c8" stroke="transparent" stroke-width="0" rx="0%" data-fill-palette-color="tertiary"></path><path d="M3.283 135.456v-132.173h349.554v132.173z" fill="#ffffff" stroke="transparent" stroke-width="0" rx="0%" data-fill-palette-color="quaternary"></path><path d="M9.85 128.889v-119.039h336.421v119.039z" fill="#c8c8c8" stroke="transparent" stroke-width="0" data-fill-palette-color="tertiary"></path></g><g transform="matrix(1,0,0,1,19.69974,19.69974)" id="textblocktransform"><svg viewBox="0 0 316.72104 99.33980556190477" height="99.33980556190477" width="316.72104" id="textblock"><g><svg viewBox="0 0 316.72104 99.33980556190477" height="99.33980556190477" width="316.72104"><g transform="matrix(1,0,0,1,0,0)"><svg width="316.72104" viewBox="1.8 -37.5 157.48999999999998 49.4" height="99.33980556190477" data-palette-color="#ffffff"><path d="M2.75-23.8L23.75-23.8 23.75-22.9 11.9-0.9 12.55-0.9Q16.75-0.9 19.15-3.1 21.55-5.3 22.9-10.25L22.9-10.25 23.6-10.25 22.8 0 1.8 0 1.8-0.75 13.85-22.9 13.3-22.9Q8.25-22.9 6.28-21.25 4.3-19.6 2.75-14.2L2.75-14.2 2.1-14.2 2.75-23.8ZM44.75-13.45Q44.75-18.6 44.25-20.38 43.75-22.15 42.3-22.15 40.85-22.15 39.7-20.28 38.55-18.4 38.55-15.25L38.55-15.25 38.55-6.1Q38.55-3.95 39.4-2.45 40.25-0.95 41.9-0.95 43.55-0.95 44.15-3.15 44.75-5.35 44.75-10.85L44.75-10.85 44.75-13.45ZM26.6-23.8L38.45-23.8 38.45-19.85Q40.4-24.3 45.35-24.3L45.35-24.3Q49.65-24.3 52.02-21.2 54.4-18.1 54.4-11.8 54.4-5.5 51.82-2.5 49.25 0.5 44.1 0.5L44.1 0.5Q41.7 0.5 40.5-0.1 39.3-0.7 38.55-1.95L38.55-1.95 38.55 11 45 11 45 11.9 26.5 11.9 26.5 11 29.25 11 29.25-22.9 26.6-22.9 26.6-23.8ZM55.9-36.6L55.9-37.5 67.95-37.5 67.95-19.2Q68.75-21.5 70.4-22.9 72.05-24.3 75.4-24.3L75.4-24.3Q83.15-24.3 83.15-15.95L83.15-15.95 83.15-0.9 85.95-0.9 85.95 0 71.8 0 71.8-0.9 73.84-0.9 73.84-17.15Q73.84-20.15 73.45-21.03 73.05-21.9 72-21.9L72-21.9Q70.4-21.9 69.17-19.8 67.95-17.7 67.95-14.7L67.95-14.7 67.95-0.9 70.09-0.9 70.09 0 55.9 0 55.9-0.9 58.65-0.9 58.65-36.6 55.9-36.6ZM102.84-9.85L102.84-9.85 102.84-14.1Q102.84-18.95 102.32-21.18 101.79-23.4 99.89-23.4L99.89-23.4Q98.79-23.4 98.12-22.78 97.44-22.15 97.14-20.7L97.14-20.7Q96.69-18.45 96.69-13.85L96.69-13.85 96.69-9.95Q96.69-4.5 97.02-3.4 97.34-2.3 97.69-1.6L97.69-1.6Q98.24-0.4 99.84-0.4L99.84-0.4Q101.79-0.4 102.39-2.65L102.39-2.65Q102.84-4.25 102.84-9.85ZM99.74 0.5Q93.49 0.5 90.29-2.7 87.09-5.9 87.09-11.88 87.09-17.85 90.52-21.08 93.94-24.3 100.14-24.3 106.34-24.3 109.39-21.33 112.44-18.35 112.44-12.25L112.44-12.25Q112.44 0.5 99.74 0.5L99.74 0.5ZM116.34-7.15L116.34-7.15 116.34-22.9 113.59-22.9 113.59-23.8 116.34-23.8 116.34-30.25 125.64-32.55 125.64-23.8 132.14-23.8 132.14-22.9 125.64-22.9 125.64-6.05Q125.64-3.7 126.12-2.6 126.59-1.5 128.09-1.5 129.59-1.5 130.72-3 131.84-4.5 132.19-7.1L132.19-7.1 133.04-7Q132.64-3.55 130.84-1.53 129.04 0.5 124.89 0.5 120.74 0.5 118.54-1.15 116.34-2.8 116.34-7.15ZM149.69-9.85L149.69-9.85 149.69-14.1Q149.69-18.95 149.16-21.18 148.64-23.4 146.74-23.4L146.74-23.4Q145.64-23.4 144.96-22.78 144.29-22.15 143.99-20.7L143.99-20.7Q143.54-18.45 143.54-13.85L143.54-13.85 143.54-9.95Q143.54-4.5 143.86-3.4 144.19-2.3 144.54-1.6L144.54-1.6Q145.09-0.4 146.69-0.4L146.69-0.4Q148.64-0.4 149.24-2.65L149.24-2.65Q149.69-4.25 149.69-9.85ZM146.59 0.5Q140.34 0.5 137.14-2.7 133.94-5.9 133.94-11.88 133.94-17.85 137.36-21.08 140.79-24.3 146.99-24.3 153.19-24.3 156.24-21.33 159.29-18.35 159.29-12.25L159.29-12.25Q159.29 0.5 146.59 0.5L146.59 0.5Z" opacity="1" transform="matrix(1,0,0,1,0,0)" fill="#ffffff" class="wordmark-text-0" data-fill-palette-color="quaternary" id="text-0"></path></svg></g></svg></g></svg></g></svg></g><g></g></svg></g><defs></defs></svg><rect width="356.12052" height="138.73928556190475" fill="none" stroke="none" visibility="hidden"></rect></g></svg></g></svg>